<svg width="14" height="14" viewBox="0 0 14 14" fill="none" xmlns="http://www.w3.org/2000/svg">
<path d="M6.33325 5.00065H7.66658V3.66732H6.33325M6.99992 12.334C4.05992 12.334 1.66659 9.94065 1.66659 7.00065C1.66659 4.06065 4.05992 1.66732 6.99992 1.66732C9.93992 1.66732 12.3333 4.06065 12.3333 7.00065C12.3333 9.94065 9.93992 12.334 6.99992 12.334ZM6.99992 0.333984C6.12444 0.333984 5.25753 0.506423 4.4487 0.841454C3.63986 1.17649 2.90493 1.66755 2.28587 2.28661C1.03563 3.53685 0.333252 5.23254 0.333252 7.00065C0.333252 8.76876 1.03563 10.4645 2.28587 11.7147C2.90493 12.3338 3.63986 12.8248 4.4487 13.1598C5.25753 13.4949 6.12444 13.6673 6.99992 13.6673C8.76803 13.6673 10.4637 12.9649 11.714 11.7147C12.9642 10.4645 13.6666 8.76876 13.6666 7.00065C13.6666 6.12517 13.4941 5.25827 13.1591 4.44943C12.8241 3.64059 12.333 2.90566 11.714 2.28661C11.0949 1.66755 10.36 1.17649 9.55114 0.841454C8.7423 0.506423 7.8754 0.333984 6.99992 0.333984ZM6.33325 10.334H7.66658V6.33398H6.33325V10.334Z" fill="#0A0505"/>
</svg>
