<svg width="24" height="24" viewBox="0 0 24 24" fill="none" xmlns="http://www.w3.org/2000/svg">
<path d="M20.8226 19L17.2566 15.3333C18.1482 14 18.7154 12.4167 18.7154 10.6667C18.7154 6.33336 15.2304 2.75 11.0159 2.75C6.80148 2.75 3.31647 6.33336 3.31647 10.6667C3.31647 15 6.80148 18.5834 11.0159 18.5834C12.7179 18.5834 14.2578 18 15.5546 17.0833L19.1206 20.75L20.8226 19ZM5.74787 10.75C5.74787 7.75001 8.09823 5.33334 11.0159 5.33334C13.9336 5.33334 16.284 7.75001 16.284 10.75C16.284 13.75 13.9336 16.1667 11.0159 16.1667C8.09823 16.1667 5.74787 13.75 5.74787 10.75Z" fill="#6C6969"/>
</svg>
